<?xml version="1.0" encoding="UTF-8" standalone="no"?>
<svg width="1315px" height="32px" viewBox="0 0 1315 32" version="1.1" xmlns="http://www.w3.org/2000/svg" xmlns:xlink="http://www.w3.org/1999/xlink" xmlns:sketch="http://www.bohemiancoding.com/sketch/ns">
    <title>timeline</title>
    <description>Created with Sketch (http://www.bohemiancoding.com/sketch)</description>
    <defs></defs>
    <g id="Page-1" stroke="none" stroke-width="1" fill="none" fill-rule="evenodd" sketch:type="MSPage">
        <g id="Group" sketch:type="MSLayerGroup">
            <path d="M21.5,14.5 L1301.50598,14.5" id="Line" stroke="#8358A4" stroke-width="3" stroke-linecap="square" sketch:type="MSShapeGroup"></path>
            <path d="M16,32 C24.8365564,32 32,24.8365564 32,16 C32,7.16344357 24.8365564,0 16,0 C7.16344357,0 0,7.16344357 0,16 C0,24.8365564 7.16344357,32 16,32 Z" id="Oval-1" fill="#8358A4" sketch:type="MSShapeGroup"></path>
            <path d="M649,32 C657.836556,32 665,24.8365564 665,16 C665,7.16344357 657.836556,0 649,0 C640.163444,0 633,7.16344357 633,16 C633,24.8365564 640.163444,32 649,32 Z" id="Oval-1-copy" fill="#8358A4" sketch:type="MSShapeGroup"></path>
            <path d="M1299,32 C1307.83656,32 1315,24.8365564 1315,16 C1315,7.16344357 1307.83656,0 1299,0 C1290.16344,0 1283,7.16344357 1283,16 C1283,24.8365564 1290.16344,32 1299,32 Z" id="Oval-1-copy-2" fill="#8358A4" sketch:type="MSShapeGroup"></path>
        </g>
    </g>
</svg>